<?xml version="1.0" encoding="UTF-8"?>
<svg xmlns="http://www.w3.org/2000/svg" id="Layer_1" data-name="Layer 1" viewBox="0 0 24 24" width="512" height="512"><path d="m12.118,20.032l-8.998,3.788c-.284.119-.581.178-.875.178-.582,0-1.153-.229-1.584-.659-.648-.648-.837-1.613-.481-2.458l3.788-8.999,8.15,8.15Zm4.09-5.76l-6.479-6.479c-.637-.638-1.547-.914-2.43-.741-.884.174-1.621.772-1.971,1.604l-.521,1.238,9.302,9.302,1.238-.521c.831-.35,1.43-1.087,1.603-1.971.173-.885-.104-1.794-.741-2.431Zm-.412-6.667c.73-.962,1.134-1.984,1.202-3.041.172-2.697-1.795-4.282-1.878-4.349-.43-.338-1.051-.267-1.396.162-.344.428-.275,1.056.15,1.403.05.041,1.232,1.025,1.128,2.656-.042.657-.311,1.316-.798,1.959-.334.44-.248,1.067.192,1.401.181.137.393.203.604.203.302,0,.601-.137.797-.396Zm7.78,6.213c.452-.318.56-.942.241-1.394-.373-.529-1.386-1.424-2.817-1.424-.776,0-1.505.24-2.108.695-.441.332-.528.96-.196,1.4.333.44.959.529,1.401.195.256-.193.56-.291.903-.291.729,0,1.16.548,1.19.587.195.27.5.413.811.413.199,0,.4-.06.575-.183Zm-2.576-12.317c0,.828.672,1.5,1.5,1.5s1.5-.672,1.5-1.5-.672-1.5-1.5-1.5-1.5.672-1.5,1.5Zm-2,5c0,.828.672,1.5,1.5,1.5s1.5-.672,1.5-1.5-.672-1.5-1.5-1.5-1.5.672-1.5,1.5ZM8,2.5c0,.828.672,1.5,1.5,1.5s1.5-.672,1.5-1.5-.672-1.5-1.5-1.5-1.5.672-1.5,1.5Zm12,16c0,.828.672,1.5,1.5,1.5s1.5-.672,1.5-1.5-.672-1.5-1.5-1.5-1.5.672-1.5,1.5ZM1,3.5c0,.828.672,1.5,1.5,1.5s1.5-.672,1.5-1.5-.672-1.5-1.5-1.5-1.5.672-1.5,1.5Zm14,19c0,.828.672,1.5,1.5,1.5s1.5-.672,1.5-1.5-.672-1.5-1.5-1.5-1.5.672-1.5,1.5Z"/></svg>
