<?xml version="1.0" encoding="UTF-8"?>
<svg xmlns="http://www.w3.org/2000/svg" id="Layer_1" data-name="Layer 1" viewBox="0 0 24 24" width="512" height="512"><path d="M9,12c3.309,0,6-2.691,6-6S12.309,0,9,0,3,2.691,3,6s2.691,6,6,6Zm0-9c1.654,0,3,1.346,3,3s-1.346,3-3,3-3-1.346-3-3,1.346-3,3-3Zm2,14.341c-.64-.226-1.313-.341-2-.341-3.16,0-5.796,2.459-6.003,5.599-.052,.793-.711,1.401-1.495,1.401-.033,0-.066,0-.1-.003-.827-.054-1.453-.769-1.398-1.595,.31-4.711,4.262-8.401,8.997-8.401,1.029,0,2.038,.172,3,.513,.781,.276,1.19,1.133,.914,1.914-.276,.781-1.132,1.19-1.914,.914Zm12.26-1.325l-6.715,6.715c-.813,.813-1.915,1.269-3.064,1.269h-.955c-.276,0-.5-.224-.5-.5v-.955c0-1.149,.457-2.252,1.269-3.064l6.808-6.808c.953-.953,2.534-.894,3.409,.176,.761,.93,.598,2.317-.252,3.167Z"/></svg>
